<svg xmlns="http://www.w3.org/2000/svg" xmlns:xlink="http://www.w3.org/1999/xlink" width="90" height="100" version="1.1" viewBox="0 0 90 100"><title>Artboard</title><desc>Created with Sketch.</desc><defs><linearGradient id="linearGradient-1" x1="0%" x2="90.568%" y1="96.182%" y2="11.1%"><stop offset="0%" stop-color="#06FFFF"/><stop offset="100%" stop-color="#0EF99D"/></linearGradient><linearGradient id="linearGradient-2" x1="0%" x2="86.059%" y1="100%" y2="10.298%"><stop offset="0%" stop-color="#06FFFF"/><stop offset="100%" stop-color="#0EF99D"/></linearGradient><linearGradient id="linearGradient-3" x1="50%" x2="50%" y1="1.509%" y2="100%"><stop offset="0%" stop-color="#06FFFF"/><stop offset="100%" stop-color="#0EF99D"/></linearGradient><circle id="path-4" cx="39.5" cy="34" r="3"/><circle id="path-5" cx="51" cy="52" r="3"/><circle id="path-6" cx="29" cy="52" r="3"/></defs><g id="Page-1" fill="none" fill-rule="evenodd" stroke="none" stroke-width="1"><g id="Artboard"><g id="Group" transform="translate(5.000000, 5.000000)"><path id="Line-4-Copy-3" stroke="url(#linearGradient-1)" stroke-linecap="round" stroke-linejoin="round" stroke-width="3" d="M28.9429103,52.0179547 L0.5,68.5"/><path id="Line-4" stroke="#06FFFF" stroke-linecap="round" stroke-linejoin="round" stroke-width="3" d="M78.6468747,22.9532989 L39.5529477,45.453736"/><path id="Line-4-Copy" stroke="#06FFFF" stroke-linecap="round" stroke-linejoin="round" stroke-width="3" d="M39.5441932,22.8883681 L0.22824652,45.6275389" transform="translate(19.886220, 34.257953) scale(-1, 1) translate(-19.886220, -34.257953)"/><path id="Line-4-Copy-2" stroke="url(#linearGradient-2)" stroke-linecap="round" stroke-linejoin="round" stroke-width="3" d="M78.0547477,51.8042546 L50.5344783,67.5" transform="translate(64.517239, 59.804255) scale(-1, 1) translate(-64.517239, -59.804255)"/><polygon id="Polygon" stroke="#06FFFF" stroke-linecap="round" stroke-linejoin="round" stroke-width="3" points="39.404 0 78.808 22.75 78.808 68.25 39.404 91 0 68.25 0 22.75"/><path id="Line-5" stroke="#06FFFF" stroke-linecap="round" stroke-linejoin="round" stroke-width="3" d="M39.5,45.9968764 L39.5,90.5"/><path id="Line-5-Copy" stroke="url(#linearGradient-3)" stroke-linecap="round" stroke-linejoin="round" stroke-width="3" d="M39.5,0.402962655 L39.5,32.6555776"/><g id="Oval-Copy-511"><use fill="#039B6D" fill-rule="evenodd" xlink:href="#path-4"/><circle cx="39.5" cy="34" r="3"/><use stroke="#0DF9A3" stroke-width="2" xlink:href="#path-4"/></g><g id="Oval-Copy-515"><use fill="#039B6D" fill-rule="evenodd" xlink:href="#path-5"/><circle cx="51" cy="52" r="3"/><use stroke="#0DF9A3" stroke-width="2" xlink:href="#path-5"/></g><g id="Oval-Copy-516"><use fill="#039B6D" fill-rule="evenodd" xlink:href="#path-6"/><circle cx="29" cy="52" r="3"/><use stroke="#0DF9A3" stroke-width="2" xlink:href="#path-6"/></g></g></g></g></svg>