<svg xmlns="http://www.w3.org/2000/svg" xmlns:xlink="http://www.w3.org/1999/xlink" width="16" height="20" version="1.1" viewBox="0 0 16 20"><title>ic_book_black_24px</title><desc>Created with Sketch.</desc><defs><linearGradient id="linearGradient-1" x1="50%" x2="50%" y1="0%" y2="100%"><stop offset="0%" stop-color="#CB64B1"/><stop offset="100%" stop-color="#7E3FD4"/></linearGradient></defs><g id="Artboard" fill="none" fill-rule="evenodd" stroke="none" stroke-width="1" transform="translate(-552.000000, -590.000000)"><g id="ic_book_black_24px" transform="translate(548.000000, 588.000000)"><polygon id="Shape" points="0 0 24 0 24 24 0 24"/><path id="Shape" fill="url(#linearGradient-1)" fill-rule="nonzero" d="M18,2 L6,2 C4.9,2 4,2.9 4,4 L4,20 C4,21.1 4.9,22 6,22 L18,22 C19.1,22 20,21.1 20,20 L20,4 C20,2.9 19.1,2 18,2 Z M6,4 L11,4 L11,12 L8.5,10.5 L6,12 L6,4 Z"/></g></g></svg>